<?xml version="1.0" encoding="utf-8"?>
<!-- Generator: Adobe Illustrator 24.0.0, SVG Export Plug-In . SVG Version: 6.00 Build 0)  -->
<svg version="1.1" id="Layer_1" xmlns="http://www.w3.org/2000/svg" xmlns:xlink="http://www.w3.org/1999/xlink" x="0px" y="0px"
	 viewBox="0 0 512 512" style="enable-background:new 0 0 512 512;" xml:space="preserve">
<style type="text/css">
	.st0{fill:#FFFFFF;}
</style>
<g>
	<path class="st0" d="M443,377.6c-8.9-38.7-33.9-71.7-68.6-90.9l-34.3-19l-61.3,119.1l-3.5-56.6l-10.1-16.5l15.7-18.3
		c3.4-4,5.5-8.9,6.1-14c-9.7,5.8-20.6,8.6-31.5,8.5v34.6v-34.6c-10.5-0.1-21-2.9-30.4-8.5c0.6,5.1,2.7,10,6.1,14l15.7,18.3
		l-10.1,16.5l-3.3,57L172,267.7l-34.3,19C103,305.9,78,338.9,69.1,377.6l-11,47.6h0.1c0,0.4-0.1,0.8-0.1,1.2
		c0,24.9,88.6,45.1,197.9,45.1s198-20.2,198-45.1c0-0.4,0-0.8-0.1-1.2h0.1L443,377.6z"/>
	<path class="st0" d="M172.8,176.2c0.9,0,1.7-0.1,2.5-0.2v6c0,12.3,3.7,24.3,10.7,34.4l20.1,29.1c4.7,6.9,10.8,12.6,17.9,17l0,0
		c19.6,12.2,44.4,12.2,64,0l3.4-2.1c4.9-3,9-7,12.3-11.7l22.3-32.4c7-10.1,10.7-22.1,10.7-34.4v-6c0.8,0.1,1.7,0.2,2.5,0.2
		c10.8,0,19.5-12.1,19.5-27.1s-8.8-27.1-19.5-27.1c-1.2,0-2.4,0.2-3.5,0.4c0-0.8,0.1-1.6,0.1-2.3c0-44-35.7-79.7-79.7-79.7
		S176.4,76,176.4,120c0,0.8,0,1.6,0.1,2.3c-1.1-0.3-2.3-0.4-3.5-0.4c-10.8,0-19.5,12.1-19.5,27.1C153.3,164.1,162,176.2,172.8,176.2
		z"/>
</g>
</svg>
